# xmcd CD database file
#
# Track frame offsets:
#	150
#	12875
#	26785
#	50200
#	64750
#	72015
#	93640
#	122188
#	143105
#	148903
#	165950
#	176600
#	191775
#	222745
#	238115
#	257225
#
# Disc length: 3741 seconds
#
# Revision: 0
# Processed by: cddbd v1.4PL0 Copyright (c) Steve Scherf et al.
# Submitted via: CDex 1.50beta9
#
DISCID=fc0e9b10
DTITLE=Lyra and Roark Barron - In Essence
DYEAR=1993
DGENRE=New Age
TTITLE0=Window of Wonder
TTITLE1=Comfort
TTITLE2=Mystery of the Mother
TTITLE3=Journey to the Center
TTITLE4=Alone
TTITLE5=Jaum's Lullaby
TTITLE6=Beneath the Deep
TTITLE7=In Essence
TTITLE8=Thousand Year Moon
TTITLE9=Harp Godmother
TTITLE10=Sea of Wonder
TTITLE11=Romance
TTITLE12=Leave Beauty
TTITLE13=Inner Cave
TTITLE14=Dreamwalker
TTITLE15=Child of Wonder
EXTD=YEAR: 1993
EXTT0=
EXTT1=
EXTT2=
EXTT3=
EXTT4=
EXTT5=
EXTT6=
EXTT7=
EXTT8=
EXTT9=
EXTT10=
EXTT11=
EXTT12=
EXTT13=
EXTT14=
EXTT15=
PLAYORDER=
